<svg xmlns="http://www.w3.org/2000/svg" viewBox="0 0 639.56 717.02" height="639.56" width="717.02">   
    <path d="M639.37 653.79c-201.84 123.3-465.42 59.62-588.71-142.22C-47.98 350.1 2.96 139.24 164.43 40.6 293.61-38.31 462.3 2.44 541.21 131.62c63.13 103.34 30.53 238.29-72.82 301.42-82.67 50.5-190.63 24.42-241.14-58.25-40.4-66.14-19.54-152.51 46.6-192.91 52.91-32.32 122.01-15.63 154.33 37.28 25.86 42.33 12.5 97.6-29.83 123.46-33.86 20.69-78.08 10-98.77-23.86-16.55-27.09-8-62.47 19.09-79.02" fill="none" stroke="#6d6e71" stroke-width=".75" stroke-miterlimit="10"/>
</svg>